<svg width="140" height="140" viewBox="0 0 140 140" fill="none" xmlns="http://www.w3.org/2000/svg">
<circle cx="70" cy="70" r="70" fill="#420006"/>
<g filter="url(#filter0_d_0_1)">
<rect x="30" y="39" width="80" height="62" rx="10" fill="#FFF8E3"/>
</g>
<path d="M66.8534 73.16C68.9679 74.4767 71.6489 74.4693 73.756 73.1408L120.428 43.7155C122.879 42.1698 124.011 39.1875 123.203 36.4042C122.395 33.6209 119.841 31.7091 116.943 31.7171L23.4371 31.9768C20.5388 31.9849 17.996 33.9109 17.2032 36.6987C16.4103 39.4864 17.5589 42.4623 20.0192 43.9944L66.8534 73.16Z" stroke="#420006" stroke-width="13" stroke-linejoin="round"/>
<g filter="url(#filter1_i_0_1)">
<path d="M70 67.5L31.5 43.5V58L67.5 80.5H74L110 58L108 43.5L70 67.5Z" fill="#420006"/>
</g>
<defs>
<filter id="filter0_d_0_1" x="26" y="39" width="88" height="70" filterUnits="userSpaceOnUse" color-interpolation-filters="sRGB">
<feFlood flood-opacity="0" result="BackgroundImageFix"/>
<feColorMatrix in="SourceAlpha" type="matrix" values="0 0 0 0 0 0 0 0 0 0 0 0 0 0 0 0 0 0 127 0" result="hardAlpha"/>
<feOffset dy="4"/>
<feGaussianBlur stdDeviation="2"/>
<feComposite in2="hardAlpha" operator="out"/>
<feColorMatrix type="matrix" values="0 0 0 0 0 0 0 0 0 0 0 0 0 0 0 0 0 0 0.25 0"/>
<feBlend mode="normal" in2="BackgroundImageFix" result="effect1_dropShadow_0_1"/>
<feBlend mode="normal" in="SourceGraphic" in2="effect1_dropShadow_0_1" result="shape"/>
</filter>
<filter id="filter1_i_0_1" x="31.5" y="43.5" width="78.5" height="41" filterUnits="userSpaceOnUse" color-interpolation-filters="sRGB">
<feFlood flood-opacity="0" result="BackgroundImageFix"/>
<feBlend mode="normal" in="SourceGraphic" in2="BackgroundImageFix" result="shape"/>
<feColorMatrix in="SourceAlpha" type="matrix" values="0 0 0 0 0 0 0 0 0 0 0 0 0 0 0 0 0 0 127 0" result="hardAlpha"/>
<feOffset dy="4"/>
<feGaussianBlur stdDeviation="2"/>
<feComposite in2="hardAlpha" operator="arithmetic" k2="-1" k3="1"/>
<feColorMatrix type="matrix" values="0 0 0 0 0 0 0 0 0 0 0 0 0 0 0 0 0 0 0.2 0"/>
<feBlend mode="saturation" in2="shape" result="effect1_innerShadow_0_1"/>
</filter>
</defs>
</svg>
