<svg width="256" height="896" viewBox="0 0 256 896" fill="none" xmlns="http://www.w3.org/2000/svg">
<path d="M72 74L181 266.329L72 458.035L181 640.406L72 829" stroke="#420006" stroke-width="15" stroke-linecap="round" stroke-linejoin="round"/>
<circle cx="70" cy="826" r="70" fill="#420006"/>
<path d="M70 842L70 857" stroke="#FFF8E3" stroke-width="3" stroke-linecap="round" stroke-linejoin="round"/>
<circle cx="70" cy="801" r="16" fill="#420006" stroke="#FFF8E3" stroke-width="4"/>
<path d="M56.1582 829C50.4915 832.833 39.5582 844.1 41.1582 858.5" stroke="#FFF8E3" stroke-width="3" stroke-linecap="round" stroke-linejoin="round"/>
<path d="M83 829C88.6667 832.833 99.6 844.1 98 858.5" stroke="#FFF8E3" stroke-width="3" stroke-linecap="round" stroke-linejoin="round"/>
<path d="M70.8045 829.8C70.041 831.245 69.2618 832.357 68.467 833.135C67.699 833.914 66.7016 834.307 65.475 834.316C63.8483 834.327 62.5504 833.655 61.5812 832.302C60.6121 830.949 60.1198 829.139 60.1045 826.872C60.0911 824.899 60.4673 823.336 61.2328 822.184C62.025 821.032 63.0878 820.452 64.4211 820.443C65.4878 820.435 66.4367 820.776 67.2681 821.463C68.0994 822.151 68.7325 823.093 69.1672 824.291C69.8263 823.166 70.5537 822.281 71.3493 821.636C72.1717 820.99 73.1561 820.663 74.3028 820.656C75.8761 820.645 77.1471 821.29 78.1159 822.59C79.0848 823.89 79.5763 825.594 79.5905 827.7C79.6033 829.593 79.2135 831.089 78.4209 832.188C77.6283 833.287 76.5653 833.841 75.232 833.85C74.2187 833.857 73.3229 833.489 72.5445 832.748C71.7663 832.033 71.1863 831.05 70.8045 829.8ZM78.6287 827.427C78.6233 826.627 78.3653 825.948 77.8549 825.392C77.3711 824.835 76.7692 824.559 76.0492 824.564C75.0093 824.571 74.145 824.924 73.4563 825.622C72.7946 826.346 72.1082 827.377 71.3972 828.716C72.4979 829.801 73.8616 830.339 75.4882 830.328C76.4215 830.322 77.1796 830.036 77.7625 829.473C78.3455 828.935 78.6343 828.253 78.6287 827.427ZM61.0261 827.106C61.0326 828.066 61.2911 828.837 61.8018 829.42C62.3392 830.03 63.0346 830.332 63.8879 830.326C64.5813 830.322 65.1798 830.104 65.6836 829.674C66.214 829.244 66.6374 828.761 66.9538 828.226C67.2702 827.69 67.784 826.767 68.4951 825.455C67.9319 824.979 67.2893 824.597 66.5673 824.308C65.8722 824.046 65.1513 823.918 64.4046 823.923C63.3913 823.93 62.5667 824.229 61.9307 824.819C61.3215 825.437 61.02 826.199 61.0261 827.106Z" fill="#FFF8E3"/>
<circle cx="186" cy="637" r="70" fill="#420006"/>
<path d="M177.5 619C177.5 628.238 170.664 635.5 162.5 635.5C154.336 635.5 147.5 628.238 147.5 619C147.5 609.762 154.336 602.5 162.5 602.5C170.664 602.5 177.5 609.762 177.5 619Z" fill="#420006" stroke="#FFF8E3" stroke-width="3"/>
<path d="M209.5 614.944V621.444H207L187 643.944V674.944H181.5V643.944L162 621.444H160V614.944H176.5H199.801H209.5Z" fill="#420006"/>
<path d="M162 621.444H160V614.944H176.5H209.5V621.444H207M162 621.444L181.5 643.944V674.944H187V643.944L207 621.444M162 621.444H196M207 621.444H196M196 621.444C198.667 616.278 205.1 605.844 209.5 605.444C215 604.944 214 603.444 223.5 611.444M199.5 674.944H167.5" stroke="#FFF8E3" stroke-width="3" stroke-linecap="round" stroke-linejoin="round"/>
<circle cx="70" cy="448" r="70" fill="#420006"/>
<path d="M103.5 460.5C99.5 465.7 96.5 472 83 474L64.5 475.5L47 476.5V459.5L60.5 454C64.5 452.5 72.7 454 77.5 454C82.3 454 83 456 80 458L65.5 463H83C87 463 96 457.667 100 455C103.5 452.667 107.5 455.3 103.5 460.5Z" stroke="#FFF8E3" stroke-width="3" stroke-linecap="round" stroke-linejoin="round"/>
<rect x="34" y="454" width="11" height="29" fill="#420006" stroke="#FFF8E3" stroke-width="2" stroke-linejoin="round"/>
<path d="M33 447H108" stroke="#FFF8E3" stroke-width="3" stroke-linecap="round" stroke-linejoin="round"/>
<path d="M107 442H34C36.2684 432.667 46.8678 414 71.1186 414C95.3695 414 105.144 432.667 107 442Z" stroke="#FFF8E3" stroke-width="3" stroke-linecap="round" stroke-linejoin="round"/>
<path d="M77 413C76.6111 410 74.55 404 69.4167 404C64.2833 404 63 410 63 413" stroke="#FFF8E3" stroke-width="3" stroke-linecap="round" stroke-linejoin="round"/>
<circle cx="181" cy="259" r="70" fill="#420006"/>
<path d="M220 261L141 244.5M220 261V269.5M220 261L182.5 230C173.833 230.667 153.4 234.5 141 244.5M141 244.5V247V252M141 252L220 269.5M141 252V261M220 269.5V276.5M220 276.5V288L141 271.5V261M220 276.5L141 261" stroke="#FFF8E3" stroke-width="4" stroke-linejoin="round"/>
<circle cx="192" cy="238" r="6.5" fill="#420006" stroke="#FFF8E3" stroke-width="3"/>
<path d="M196 232L200.839 226H206" stroke="#FFF8E3" stroke-width="3" stroke-linecap="round" stroke-linejoin="round"/>
<path d="M142 243L147.5 227L157 233.5L160 224.5L168.5 231L173.5 221L180.5 228.5" stroke="#FFF8E3" stroke-width="3" stroke-linecap="round" stroke-linejoin="round"/>
<circle cx="74" cy="70" r="70" fill="#420006"/>
<path d="M28 46.6765L44.7239 63.3529M42.2463 30L60.7157 49.7647M60.7157 49.7647L67.6418 57.1765V63.3529L111 109.676L104.806 114L58.9702 69.5294H50.9179L44.7239 63.3529M60.7157 49.7647L55.6274 54.0882M44.7239 63.3529L55.6274 54.0882M55.6274 54.0882L36.6716 35.5588" stroke="#FFF8E3" stroke-width="4" stroke-linejoin="round"/>
<path d="M49.8353 58.0256L32.5595 41.2145" stroke="#FFF8E3" stroke-width="4" stroke-linejoin="round"/>
<path d="M116 41L44.1905 113L38 105.615C44.1905 98.8462 65.7308 77.3077 67.0952 73.6154C76.0095 49.4923 103.413 41.8205 116 41Z" fill="#420006" stroke="#FFF8E3" stroke-width="4" stroke-linejoin="round"/>
<line x1="17.0291" y1="51.941" x2="45.5361" y2="22.1945" stroke="#420006" stroke-width="11"/>
</svg>
